<svg width="16" height="16" viewBox="0 0 16 16" fill="none" xmlns="http://www.w3.org/2000/svg">
<path fill-rule="evenodd" clip-rule="evenodd" d="M8.875 4.625C8.875 6.07475 7.69975 7.25 6.25 7.25C4.80025 7.25 3.625 6.07475 3.625 4.625C3.625 3.17525 4.80025 2 6.25 2C7.69975 2 8.875 3.17525 8.875 4.625ZM8 4.625C8 5.5915 7.2165 6.375 6.25 6.375C5.2835 6.375 4.5 5.5915 4.5 4.625C4.5 3.6585 5.2835 2.875 6.25 2.875C7.2165 2.875 8 3.6585 8 4.625Z" fill="#6B8299"/>
<path d="M12.375 14.25V13.375H14.125V11.625C14.125 10.2193 13.0201 9.07172 11.6315 9.00323C11.3938 8.67135 11.1095 8.3752 10.794 8.125H11.5C13.433 8.125 15 9.692 15 11.625V14.25H12.375Z" fill="#6B8299"/>
<path d="M9.31293 6.31998C9.16304 6.59025 8.97843 6.83859 8.7651 7.05898C9.06923 7.18216 9.40169 7.25 9.74999 7.25C11.1997 7.25 12.375 6.07475 12.375 4.625C12.375 3.17525 11.1997 2 9.74999 2C9.40169 2 9.06923 2.06784 8.7651 2.19102C8.97843 2.41141 9.16304 2.65975 9.31292 2.93002C9.45263 2.8941 9.59908 2.875 9.74999 2.875C10.7165 2.875 11.5 3.6585 11.5 4.625C11.5 5.5915 10.7165 6.375 9.74999 6.375C9.59908 6.375 9.45263 6.3559 9.31293 6.31998Z" fill="#6B8299"/>
<path fill-rule="evenodd" clip-rule="evenodd" d="M11.5 11.625V14.25H1V11.625C1 9.692 2.567 8.125 4.5 8.125H8C9.93299 8.125 11.5 9.692 11.5 11.625ZM1.875 13.375V11.625C1.875 10.1752 3.05025 9 4.5 9H8C9.44974 9 10.625 10.1752 10.625 11.625V13.375H1.875Z" fill="#6B8299"/>
</svg>
