<svg width="24" height="24" viewBox="0 0 24 24" fill="none" xmlns="http://www.w3.org/2000/svg">
<path fill-rule="evenodd" clip-rule="evenodd" d="M10 4H14C14.5523 4 15 4.44772 15 5H9C9 4.44772 9.44772 4 10 4ZM8 5C8 3.89543 8.89543 3 10 3H14C15.1046 3 16 3.89543 16 5H17H18H19.5C19.7761 5 20 5.22386 20 5.5C20 5.77614 19.7761 6 19.5 6H18V18C18 19.6569 16.6569 21 15 21H9C7.34315 21 6 19.6569 6 18V6H4.5C4.22386 6 4 5.77614 4 5.5C4 5.22386 4.22386 5 4.5 5H6H7H8ZM16 6H15H9H8H7V18C7 19.1046 7.89543 20 9 20H15C16.1046 20 17 19.1046 17 18V6H16ZM10 8.5C10.2761 8.5 10.5 8.72386 10.5 9V17C10.5 17.2761 10.2761 17.5 10 17.5C9.72386 17.5 9.5 17.2761 9.5 17V9C9.5 8.72386 9.72386 8.5 10 8.5ZM14.5 9C14.5 8.72386 14.2761 8.5 14 8.5C13.7239 8.5 13.5 8.72386 13.5 9V17C13.5 17.2761 13.7239 17.5 14 17.5C14.2761 17.5 14.5 17.2761 14.5 17V9Z" fill="#DC4249"/>
</svg>
