<svg width="24" height="24" viewBox="0 0 24 24" fill="none" xmlns="http://www.w3.org/2000/svg">
<rect x="0.5" y="0.5" width="23" height="23" rx="11.5" fill="#45A293"/>
<rect x="0.5" y="0.5" width="23" height="23" rx="11.5" stroke="#429A8C"/>
<path fill-rule="evenodd" clip-rule="evenodd" d="M12.5 6.66666C12.5 6.39051 12.2762 6.16666 12 6.16666C11.7239 6.16666 11.5 6.39051 11.5 6.66666V11.5H6.66669C6.39054 11.5 6.16669 11.7238 6.16669 12C6.16669 12.2761 6.39054 12.5 6.66669 12.5H11.5V17.3333C11.5 17.6095 11.7239 17.8333 12 17.8333C12.2762 17.8333 12.5 17.6095 12.5 17.3333V12.5H17.3334C17.6095 12.5 17.8334 12.2761 17.8334 12C17.8334 11.7238 17.6095 11.5 17.3334 11.5H12.5V6.66666Z" fill="white"/>
</svg>
