<svg width="16" height="16" viewBox="0 0 16 16" fill="none" xmlns="http://www.w3.org/2000/svg">
<g clip-path="url(#clip0_59196_2002)">
<path d="M7.56543 1.78223C7.75696 1.44424 8.24304 1.44423 8.43457 1.78223L15.2188 13.7539C15.4074 14.0871 15.1671 14.4998 14.7842 14.5H1.21582C0.832935 14.4998 0.592648 14.0871 0.78125 13.7539L7.56543 1.78223Z" stroke="#DC4249"/>
<path d="M7.5 6H8.5V11H7.5V6Z" fill="#DC4249"/>
<path d="M8.5 12.5C8.5 12.7761 8.27614 13 8 13C7.72386 13 7.5 12.7761 7.5 12.5C7.5 12.2239 7.72386 12 8 12C8.27614 12 8.5 12.2239 8.5 12.5Z" fill="#DC4249"/>
</g>
<defs>
<clipPath id="clip0_59196_2002">
<rect width="16" height="16" fill="white"/>
</clipPath>
</defs>
</svg>
