<svg width="24" height="24" viewBox="0 0 24 24" fill="none" xmlns="http://www.w3.org/2000/svg">
<path fill-rule="evenodd" clip-rule="evenodd" d="M11.6777 3.5C16.1939 3.50017 19.8545 7.16157 19.8545 11.6777C19.8543 16.1938 16.1938 19.8543 11.6777 19.8545C7.16157 19.8545 3.50017 16.1939 3.5 11.6777C3.5 7.16147 7.16147 3.5 11.6777 3.5ZM11.1797 21.3418L11.6777 21.3545C14.08 21.3544 16.2778 20.4791 17.9695 19.03L20.341 21.4015C20.6339 21.6942 21.1088 21.6943 21.4017 21.4015C21.6945 21.1086 21.6944 20.6337 21.4017 20.3408L19.0301 17.9693C20.3783 16.3952 21.2298 14.3831 21.3418 12.1758L21.3545 11.6777C21.3545 6.50018 17.2889 2.27207 12.1758 2.0127L11.6777 2C6.33304 2 2 6.33304 2 11.6777L2.0127 12.1758C2.26371 17.124 6.23138 21.0911 11.1797 21.3418Z" fill="#6B8299"/>
</svg>
