<svg width="24" height="24" viewBox="0 0 24 24" fill="none" xmlns="http://www.w3.org/2000/svg">
<mask id="path-1-inside-1_60047_66713" fill="white">
<path d="M14.7861 11.25C16.0923 11.2501 17.301 11.6762 18.2783 12.3965C18.6117 12.6422 18.6832 13.1119 18.4375 13.4453C18.1917 13.7786 17.7221 13.8492 17.3887 13.6035C16.6604 13.0668 15.7613 12.7501 14.7861 12.75H9.64258C7.21669 12.7502 5.25015 14.7167 5.25 17.1426V20.25H14.9287C15.3429 20.2501 15.6787 20.5858 15.6787 21C15.6787 21.4142 15.3429 21.7499 14.9287 21.75H3.75V17.1426C3.75015 13.8883 6.38826 11.2502 9.64258 11.25H14.7861ZM19.416 14.7734C19.8301 14.7736 20.166 15.1093 20.166 15.5234V17.502H22.1445C22.5586 17.502 22.8943 17.838 22.8945 18.252C22.8945 18.6662 22.5587 19.002 22.1445 19.002H20.166V20.9814C20.166 21.3956 19.8301 21.7313 19.416 21.7314C19.0019 21.7313 18.666 21.3956 18.666 20.9814V19.002H16.6865C16.2725 19.0017 15.9375 18.666 15.9375 18.252C15.9378 17.8381 16.2727 17.5022 16.6865 17.502H18.666V15.5234C18.666 15.1093 19.0019 14.7736 19.416 14.7734ZM12.4131 3.00488C14.4509 3.10834 16.0713 4.79385 16.0713 6.85742L16.0664 7.05566C15.9631 9.09346 14.2782 10.7136 12.2148 10.7139L12.0156 10.709C10.0436 10.6088 8.46229 9.02775 8.3623 7.05566L8.35742 6.85742C8.35742 4.72718 10.0846 3 12.2148 3L12.4131 3.00488ZM12.2148 4.5C10.913 4.5 9.85742 5.55561 9.85742 6.85742C9.85757 8.15911 10.9131 9.21387 12.2148 9.21387C13.5163 9.21357 14.5711 8.15892 14.5713 6.85742C14.5713 5.55579 13.5164 4.5003 12.2148 4.5Z"/>
</mask>
<path d="M14.7861 11.25C16.0923 11.2501 17.301 11.6762 18.2783 12.3965C18.6117 12.6422 18.6832 13.1119 18.4375 13.4453C18.1917 13.7786 17.7221 13.8492 17.3887 13.6035C16.6604 13.0668 15.7613 12.7501 14.7861 12.75H9.64258C7.21669 12.7502 5.25015 14.7167 5.25 17.1426V20.25H14.9287C15.3429 20.2501 15.6787 20.5858 15.6787 21C15.6787 21.4142 15.3429 21.7499 14.9287 21.75H3.75V17.1426C3.75015 13.8883 6.38826 11.2502 9.64258 11.25H14.7861ZM19.416 14.7734C19.8301 14.7736 20.166 15.1093 20.166 15.5234V17.502H22.1445C22.5586 17.502 22.8943 17.838 22.8945 18.252C22.8945 18.6662 22.5587 19.002 22.1445 19.002H20.166V20.9814C20.166 21.3956 19.8301 21.7313 19.416 21.7314C19.0019 21.7313 18.666 21.3956 18.666 20.9814V19.002H16.6865C16.2725 19.0017 15.9375 18.666 15.9375 18.252C15.9378 17.8381 16.2727 17.5022 16.6865 17.502H18.666V15.5234C18.666 15.1093 19.0019 14.7736 19.416 14.7734ZM12.4131 3.00488C14.4509 3.10834 16.0713 4.79385 16.0713 6.85742L16.0664 7.05566C15.9631 9.09346 14.2782 10.7136 12.2148 10.7139L12.0156 10.709C10.0436 10.6088 8.46229 9.02775 8.3623 7.05566L8.35742 6.85742C8.35742 4.72718 10.0846 3 12.2148 3L12.4131 3.00488ZM12.2148 4.5C10.913 4.5 9.85742 5.55561 9.85742 6.85742C9.85757 8.15911 10.9131 9.21387 12.2148 9.21387C13.5163 9.21357 14.5711 8.15892 14.5713 6.85742C14.5713 5.55579 13.5164 4.5003 12.2148 4.5Z" fill="#DC4249"/>
<path d="M14.7861 11.25L14.7862 10.25H14.7861V11.25ZM18.2783 12.3965L18.8716 11.5915L18.8716 11.5915L18.2783 12.3965ZM18.4375 13.4453L19.2424 14.0388L19.2425 14.0385L18.4375 13.4453ZM17.3887 13.6035L17.9819 12.7985L17.9819 12.7985L17.3887 13.6035ZM14.7861 12.75L14.7862 11.75H14.7861V12.75ZM9.64258 12.75V11.75H9.64252L9.64258 12.75ZM5.25 17.1426L4.25 17.1425V17.1426H5.25ZM5.25 20.25H4.25C4.25 20.8023 4.69772 21.25 5.25 21.25V20.25ZM14.9287 20.25L14.9289 19.25H14.9287V20.25ZM14.9287 21.75V22.75H14.9289L14.9287 21.75ZM3.75 21.75H2.75C2.75 22.3023 3.19772 22.75 3.75 22.75V21.75ZM3.75 17.1426L2.75 17.1425V17.1426H3.75ZM9.64258 11.25V10.25H9.64253L9.64258 11.25ZM19.416 14.7734L19.4164 13.7734H19.4157L19.416 14.7734ZM20.166 15.5234H21.166V15.5234L20.166 15.5234ZM20.166 17.502H19.166C19.166 18.0542 19.6137 18.502 20.166 18.502V17.502ZM22.8945 18.252H23.8945V18.2513L22.8945 18.252ZM22.1445 19.002V20.002V20.002V19.002ZM20.166 19.002V18.002C19.6137 18.002 19.166 18.4497 19.166 19.002H20.166ZM20.166 20.9814H21.166V20.9814H20.166ZM19.416 21.7314L19.4157 22.7314H19.4164L19.416 21.7314ZM18.666 20.9814H17.666V20.9814H18.666ZM18.666 19.002H19.666C19.666 18.4497 19.2183 18.002 18.666 18.002V19.002ZM16.6865 19.002L16.6859 20.002H16.6865V19.002ZM15.9375 18.252L14.9375 18.2513V18.252H15.9375ZM16.6865 17.502V16.502H16.6859L16.6865 17.502ZM18.666 17.502V18.502C19.2183 18.502 19.666 18.0542 19.666 17.502H18.666ZM18.666 15.5234L17.666 15.5234V15.5234H18.666ZM12.4131 3.00488L12.4638 2.00617C12.4551 2.00573 12.4464 2.0054 12.4377 2.00519L12.4131 3.00488ZM16.0713 6.85742L17.071 6.88205C17.0712 6.87384 17.0713 6.86563 17.0713 6.85742H16.0713ZM16.0664 7.05566L17.0651 7.1063C17.0656 7.09763 17.0659 7.08896 17.0661 7.08029L16.0664 7.05566ZM12.2148 10.7139L12.1903 11.7136C12.1986 11.7138 12.2068 11.7139 12.215 11.7139L12.2148 10.7139ZM12.0156 10.709L11.9649 11.7077C11.9736 11.7081 11.9824 11.7085 11.9911 11.7087L12.0156 10.709ZM8.3623 7.05566L7.36261 7.08029C7.36282 7.08896 7.36315 7.09763 7.36359 7.1063L8.3623 7.05566ZM8.35742 6.85742H7.35742C7.35742 6.86563 7.35752 6.87384 7.35773 6.88205L8.35742 6.85742ZM12.2148 3L12.2395 2.0003C12.2313 2.0001 12.2231 2 12.2148 2V3ZM12.2148 4.5L12.2151 3.5H12.2148V4.5ZM9.85742 6.85742H8.85742V6.85754L9.85742 6.85742ZM12.2148 9.21387V10.2139H12.2151L12.2148 9.21387ZM14.5713 6.85742L15.5713 6.85754V6.85742H14.5713ZM14.7861 11.25L14.7861 12.25C15.8714 12.2501 16.8736 12.6035 17.6851 13.2015L18.2783 12.3965L18.8716 11.5915C17.7283 10.749 16.3131 10.2501 14.7862 10.25L14.7861 11.25ZM18.2783 12.3965L17.685 13.2015C17.5746 13.1201 17.5501 12.9639 17.6325 12.8521L18.4375 13.4453L19.2425 14.0385C19.8164 13.2598 19.6489 12.1644 18.8716 11.5915L18.2783 12.3965ZM18.4375 13.4453L17.6326 12.8519C17.7153 12.7397 17.8718 12.7173 17.9819 12.7985L17.3887 13.6035L16.7954 14.4085C17.5724 14.9811 18.6682 14.8175 19.2424 14.0388L18.4375 13.4453ZM17.3887 13.6035L17.9819 12.7985C17.0874 12.1393 15.9817 11.7501 14.7862 11.75L14.7861 12.75L14.786 13.75C15.5408 13.7501 16.2333 13.9943 16.7955 14.4086L17.3887 13.6035ZM14.7861 12.75V11.75H9.64258V12.75V13.75H14.7861V12.75ZM9.64258 12.75L9.64252 11.75C6.66439 11.7502 4.25019 14.1644 4.25 17.1425L5.25 17.1426L6.25 17.1426C6.25012 15.269 7.76899 13.7501 9.64264 13.75L9.64258 12.75ZM5.25 17.1426H4.25V20.25H5.25H6.25V17.1426H5.25ZM5.25 20.25V21.25H14.9287V20.25V19.25H5.25V20.25ZM14.9287 20.25L14.9285 21.25C14.7907 21.25 14.6787 21.1383 14.6787 21H15.6787H16.6787C16.6787 20.0334 15.895 19.2502 14.9289 19.25L14.9287 20.25ZM15.6787 21H14.6787C14.6787 20.8617 14.7907 20.75 14.9285 20.75L14.9287 21.75L14.9289 22.75C15.895 22.7498 16.6787 21.9666 16.6787 21H15.6787ZM14.9287 21.75V20.75H3.75V21.75V22.75H14.9287V21.75ZM3.75 21.75H4.75V17.1426H3.75H2.75V21.75H3.75ZM3.75 17.1426L4.75 17.1426C4.75013 14.4406 6.94056 12.2501 9.64262 12.25L9.64258 11.25L9.64253 10.25C5.83597 10.2502 2.75018 13.336 2.75 17.1425L3.75 17.1426ZM9.64258 11.25V12.25H14.7861V11.25V10.25H9.64258V11.25ZM19.416 14.7734L19.4157 15.7734C19.278 15.7734 19.166 15.6619 19.166 15.5235L20.166 15.5234L21.166 15.5234C21.1659 14.5568 20.3822 13.7738 19.4164 13.7734L19.416 14.7734ZM20.166 15.5234H19.166V17.502H20.166H21.166V15.5234H20.166ZM20.166 17.502V18.502H22.1445V17.502V16.502H20.166V17.502ZM22.1445 17.502V18.502C22.0056 18.502 21.8946 18.3897 21.8945 18.2526L22.8945 18.252L23.8945 18.2513C23.8939 17.2862 23.1115 16.502 22.1445 16.502V17.502ZM22.8945 18.252H21.8945C21.8945 18.1139 22.0065 18.002 22.1445 18.002V19.002V20.002C23.111 20.002 23.8945 19.2185 23.8945 18.252H22.8945ZM22.1445 19.002V18.002H20.166V19.002V20.002H22.1445V19.002ZM20.166 19.002H19.166V20.9814H20.166H21.166V19.002H20.166ZM20.166 20.9814H19.166C19.166 20.8429 19.2781 20.7315 19.4157 20.7314L19.416 21.7314L19.4164 22.7314C20.3821 22.7311 21.166 21.9482 21.166 20.9814H20.166ZM19.416 21.7314L19.4164 20.7314C19.5539 20.7315 19.666 20.843 19.666 20.9814H18.666H17.666C17.666 21.9482 18.4499 22.7311 19.4157 22.7314L19.416 21.7314ZM18.666 20.9814H19.666V19.002H18.666H17.666V20.9814H18.666ZM18.666 19.002V18.002H16.6865V19.002V20.002H18.666V19.002ZM16.6865 19.002L16.6871 18.002C16.826 18.002 16.9375 18.1148 16.9375 18.252H15.9375H14.9375C14.9375 19.2172 15.719 20.0014 16.6859 20.002L16.6865 19.002ZM15.9375 18.252L16.9375 18.2526C16.9374 18.3888 16.8269 18.5019 16.6871 18.502L16.6865 17.502L16.6859 16.502C15.7185 16.5025 14.9381 17.2875 14.9375 18.2513L15.9375 18.252ZM16.6865 17.502V18.502H18.666V17.502V16.502H16.6865V17.502ZM18.666 17.502H19.666V15.5234H18.666H17.666V17.502H18.666ZM18.666 15.5234L19.666 15.5235C19.666 15.6619 19.554 15.7734 19.4164 15.7734L19.416 14.7734L19.4157 13.7734C18.4498 13.7738 17.6661 14.5568 17.666 15.5234L18.666 15.5234ZM12.4131 3.00488L12.3624 4.0036C13.8709 4.08018 15.0713 5.32896 15.0713 6.85742H16.0713H17.0713C17.0713 4.25875 15.031 2.1365 12.4638 2.00617L12.4131 3.00488ZM16.0713 6.85742L15.0716 6.8328L15.0667 7.03104L16.0664 7.05566L17.0661 7.08029L17.071 6.88205L16.0713 6.85742ZM16.0664 7.05566L15.0677 7.00503C14.9912 8.51353 13.743 9.71365 12.2147 9.71387L12.2148 10.7139L12.215 11.7139C14.8135 11.7135 16.935 9.67339 17.0651 7.1063L16.0664 7.05566ZM12.2148 10.7139L12.2393 9.71417L12.0401 9.70928L12.0156 10.709L11.9911 11.7087L12.1903 11.7136L12.2148 10.7139ZM12.0156 10.709L12.0664 9.71027C10.6066 9.6361 9.43502 8.46455 9.36102 7.00503L8.3623 7.05566L7.36359 7.1063C7.48956 9.59095 9.48058 11.5815 11.9649 11.7077L12.0156 10.709ZM8.3623 7.05566L9.362 7.03104L9.35712 6.8328L8.35742 6.85742L7.35773 6.88205L7.36261 7.08029L8.3623 7.05566ZM8.35742 6.85742H9.35742C9.35742 5.27947 10.6369 4 12.2148 4V3V2C9.53232 2 7.35742 4.1749 7.35742 6.85742H8.35742ZM12.2148 3L12.1902 3.9997L12.3885 4.00458L12.4131 3.00488L12.4377 2.00519L12.2395 2.0003L12.2148 3ZM12.2148 4.5V3.5C10.3607 3.5 8.85742 5.00332 8.85742 6.85742H9.85742H10.8574C10.8574 6.10789 11.4653 5.5 12.2148 5.5V4.5ZM9.85742 6.85742L8.85742 6.85754C8.85764 8.71184 10.3613 10.2139 12.2148 10.2139V9.21387V8.21387C11.465 8.21387 10.8575 7.60637 10.8574 6.85731L9.85742 6.85742ZM12.2148 9.21387L12.2151 10.2139C14.0685 10.2134 15.5711 8.71135 15.5713 6.85754L14.5713 6.85742L13.5713 6.85731C13.5712 7.6065 12.9641 8.21369 12.2146 8.21387L12.2148 9.21387ZM14.5713 6.85742H15.5713C15.5713 5.00382 14.069 3.50043 12.2151 3.5L12.2148 4.5L12.2146 5.5C12.9638 5.50017 13.5713 6.10777 13.5713 6.85742H14.5713Z" fill="#45A293" mask="url(#path-1-inside-1_60047_66713)"/>
</svg>
