<svg width="24" height="24" viewBox="0 0 24 24" fill="none" xmlns="http://www.w3.org/2000/svg">
<path fill-rule="evenodd" clip-rule="evenodd" d="M17.7616 7.28018L10.5654 14.4764L9.50488 13.4158L16.701 6.21964C16.9939 5.92677 17.4687 5.92681 17.7616 6.21964C18.0545 6.51253 18.0545 6.98729 17.7616 7.28018ZM6.77234 16.1483L7.38379 15.5369L8.44433 16.5974L6.77234 18.2694L2.2196 13.7167C1.92675 13.4239 1.92684 12.9491 2.2196 12.6562C2.5125 12.3633 2.98726 12.3633 3.28015 12.6562L6.77234 16.1483ZM22.1661 6.21973C21.8732 5.9269 21.3985 5.92685 21.1056 6.21973L11.1769 16.1484L7.68469 12.6563C7.3918 12.3634 6.91704 12.3634 6.62415 12.6563C6.33139 12.9492 6.3313 13.4239 6.62415 13.7168L11.1769 18.2695L22.1661 7.28027C22.459 6.98738 22.459 6.51262 22.1661 6.21973Z" fill="#45A293"/>
</svg>
