<svg width="24" height="24" viewBox="0 0 24 24" fill="none" xmlns="http://www.w3.org/2000/svg">
<path fill-rule="evenodd" clip-rule="evenodd" d="M10.572 9.71429C12.1499 9.71429 13.4291 8.4351 13.4291 6.85714C13.4291 5.27919 12.1499 4 10.572 4C8.99403 4 7.71484 5.27919 7.71484 6.85714C7.71484 8.4351 8.99403 9.71429 10.572 9.71429ZM10.572 10.7143C12.7022 10.7143 14.4291 8.98738 14.4291 6.85714C14.4291 4.7269 12.7022 3 10.572 3C8.44175 3 6.71484 4.7269 6.71484 6.85714C6.71484 8.98738 8.44175 10.7143 10.572 10.7143ZM5.24776 14.814C4.42471 15.7867 4 16.9617 4 17.7857V19.8571H13.7857C14.0619 19.8571 14.2857 20.081 14.2857 20.3571C14.2857 20.6333 14.0619 20.8571 13.7857 20.8571H3.5H3V20.3571V17.7857C3 16.6812 3.53957 15.2847 4.48438 14.1681C5.43923 13.0396 6.85504 12.1429 8.64286 12.1429H8.6579H8.67287H8.68779H8.70266H8.71746H8.73221H8.74689H8.76152H8.7761H8.79061H8.80507H8.81947H8.83382H8.84811H8.86234H8.87651H8.89063H8.9047H8.9187H8.93266H8.94655H8.96039H8.97418H8.98791H9.00159H9.01521H9.02878H9.04229H9.05575H9.06916H9.08251H9.09581H9.10905H9.12225H9.13538H9.14847H9.1615H9.17449H9.18741H9.20029H9.21312H9.22589H9.23861H9.25128H9.2639H9.27647H9.28898H9.30145H9.31386H9.32623H9.33854H9.35081H9.36302H9.37519H9.3873H9.39937H9.41139H9.42335H9.43527H9.44714H9.45897H9.47074H9.48246H9.49414H9.50577H9.51735H9.52889H9.54037H9.55181H9.56321H9.57455H9.58585H9.59711H9.60831H9.61947H9.63059H9.64166H9.65268H9.66366H9.67459H9.68548H9.69632H9.70712H9.71787H9.72858H9.73925H9.74987H9.76045H9.77098H9.78147H9.79192H9.80232H9.81268H9.823H9.83327H9.84351H9.8537H9.86384H9.87395H9.88402H9.89404H9.90402H9.91396H9.92386H9.93372H9.94353H9.95331H9.96305H9.97274H9.9824H9.99202H10.0016H10.0111H10.0206H10.0301H10.0395H10.0489H10.0582H10.0675H10.0768H10.086H10.0952H10.1044H10.1135H10.1225H10.1316H10.1406H10.1496H10.1585H10.1674H10.1762H10.185H10.1938H10.2026H10.2113H10.22H10.2286H10.2372H10.2458H10.2543H10.2628H10.2713H10.2797H10.2881H10.2965H10.3048H10.3131H10.3213H10.3296H10.3378H10.3459H10.3541H10.3622H10.3702H10.3783H10.3863H10.3942H10.4022H10.4101H10.4179H10.4258H10.4336H10.4414H10.4491H10.4568H10.4645H10.4722H10.4798H10.4874H10.495H10.5025H10.51H10.5175H10.5249H10.5324H10.5398H10.5471H10.5545H10.5618H10.5691H10.5763H10.5835H10.5907H10.5979H10.605H10.6122H10.6192H10.6263H10.6333H10.6404H10.6473H10.6543H10.6612H10.6681H10.675H10.6819H10.6887H10.6955H10.7023H10.709H10.7158H10.7225H10.7292H10.7358H10.7425H10.7491H10.7557H10.7622H10.7688H10.7753H10.7818H10.7883H10.7947H10.8012H10.8076H10.814H10.8203H10.8267H10.833H10.8393H10.8456H10.8518H10.8581H10.8643H10.8705H10.8767H10.8828H10.889H10.8951H10.9012H10.9073H10.9133H10.9194H10.9254H10.9314H10.9374H10.9434H10.9493H10.9553H10.9612H10.9671H10.9729H10.9788H10.9847H10.9905H10.9963H11.0021H11.0079H11.0137H11.0194H11.0251H11.0309H11.0366H11.0422H11.0479H11.0536H11.0592H11.0648H11.0705H11.0761H11.0816H11.0872H11.0928H11.0983H11.1038H11.1094H11.1149H11.1204H11.1258H11.1313H11.1368H11.1422H11.1476H11.1531H11.1585H11.1639H11.1692H11.1746H11.18H11.1853H11.1907H11.196H11.2013H11.2066H11.2119H11.2172H11.2225H11.2278H11.233H11.2383H11.2435H11.2488H11.254H11.2592H11.2644H11.2696H11.2748H11.28H11.2852H11.2904H11.2955H11.3007H11.3059H11.311H11.3161H11.3213H11.3264H11.3315H11.3366H11.3418H11.3469H11.352H11.357H11.3621H11.3672H11.3723H11.3774H11.3824H11.3875H11.3926H11.3976H11.4027H11.4077H11.4128H11.4178H11.4229H11.4279H11.433H11.438H11.443H11.4481H11.4531H11.4581H11.4632H11.4682H11.4732H11.4782H11.4833H11.4883H11.4933H11.4983H11.5033H11.5084H11.5134H11.5184H11.5234H11.5285H11.5335H11.5385H11.5435H11.5486H11.5536H11.5586H11.5637H11.5687H11.5738H11.5788H11.5838H11.5889H11.5939H11.599H11.604H11.6091H11.6142H11.6192H11.6243H11.6294H11.6345H11.6396H11.6447H11.6497H11.6548H11.66H11.6651H11.6702H11.6753H11.6804H11.6856H11.6907H11.6959H11.701H11.7062H11.7113H11.7165H11.7217H11.7269H11.7321H11.7373H11.7425H11.7477H11.753H11.7582H11.7635H11.7687H11.774H11.7792H11.7845H11.7898H11.7951H11.8004H11.8058H11.8111H11.8165H11.8218H11.8272H11.8325H11.8379H11.8433H11.8487H11.8542H11.8596H11.8651H11.8705H11.876H11.8815H11.887H11.8925H11.898H11.9035H11.9091H11.9146H11.9202H11.9258H11.9314H11.937H11.9427H11.9483H11.954H11.9597H11.9653H11.9711H11.9768H11.9825H11.9883H11.994H11.9998H12.0056H12.0115H12.0173H12.0231H12.029H12.0349H12.0408H12.0467H12.0527H12.0586H12.0646H12.0706H12.0766H12.0826H12.0887H12.0948H12.1008H12.1069H12.1131H12.1192H12.1254H12.1316H12.1378H12.144H12.1503H12.1565H12.1628H12.1691H12.1754H12.1818H12.1882H12.1946H12.201H12.2074H12.2139H12.2204H12.2269H12.2334H12.2399H12.2465H12.2531H12.2597H12.2664H12.2731H12.2797H12.2865H12.2932H12.3H12.3068H12.3136H12.3204H12.3273H12.3342H12.3411H12.348H12.355H12.362H12.369H12.376H12.3831H12.3902H12.3973H12.4045H12.4117H12.4189H12.4261H12.4334H12.4407H12.448H12.4553H12.4627H12.4701H12.4775H12.485H12.4925H12.5C13.7076 12.1429 14.7612 12.4781 15.6216 13.0414C15.8527 13.1926 15.9174 13.5025 15.7661 13.7336C15.6149 13.9646 15.305 14.0293 15.0739 13.878C14.3791 13.4232 13.5165 13.1429 12.5 13.1429H12.4925H12.485H12.4775H12.4701H12.4627H12.4553H12.448H12.4407H12.4334H12.4261H12.4189H12.4117H12.4045H12.3973H12.3902H12.3831H12.376H12.369H12.362H12.355H12.348H12.3411H12.3342H12.3273H12.3204H12.3136H12.3068H12.3H12.2932H12.2865H12.2797H12.2731H12.2664H12.2597H12.2531H12.2465H12.2399H12.2334H12.2269H12.2204H12.2139H12.2074H12.201H12.1946H12.1882H12.1818H12.1754H12.1691H12.1628H12.1565H12.1503H12.144H12.1378H12.1316H12.1254H12.1192H12.1131H12.1069H12.1008H12.0948H12.0887H12.0826H12.0766H12.0706H12.0646H12.0586H12.0527H12.0467H12.0408H12.0349H12.029H12.0231H12.0173H12.0115H12.0056H11.9998H11.994H11.9883H11.9825H11.9768H11.9711H11.9653H11.9597H11.954H11.9483H11.9427H11.937H11.9314H11.9258H11.9202H11.9146H11.9091H11.9035H11.898H11.8925H11.887H11.8815H11.876H11.8705H11.8651H11.8596H11.8542H11.8487H11.8433H11.8379H11.8325H11.8272H11.8218H11.8165H11.8111H11.8058H11.8004H11.7951H11.7898H11.7845H11.7792H11.774H11.7687H11.7635H11.7582H11.753H11.7477H11.7425H11.7373H11.7321H11.7269H11.7217H11.7165H11.7113H11.7062H11.701H11.6959H11.6907H11.6856H11.6804H11.6753H11.6702H11.6651H11.66H11.6548H11.6497H11.6447H11.6396H11.6345H11.6294H11.6243H11.6192H11.6142H11.6091H11.604H11.599H11.5939H11.5889H11.5838H11.5788H11.5738H11.5687H11.5637H11.5586H11.5536H11.5486H11.5435H11.5385H11.5335H11.5285H11.5234H11.5184H11.5134H11.5084H11.5033H11.4983H11.4933H11.4883H11.4833H11.4782H11.4732H11.4682H11.4632H11.4581H11.4531H11.4481H11.443H11.438H11.433H11.4279H11.4229H11.4178H11.4128H11.4077H11.4027H11.3976H11.3926H11.3875H11.3824H11.3774H11.3723H11.3672H11.3621H11.357H11.352H11.3469H11.3418H11.3366H11.3315H11.3264H11.3213H11.3161H11.311H11.3059H11.3007H11.2955H11.2904H11.2852H11.28H11.2748H11.2696H11.2644H11.2592H11.254H11.2488H11.2435H11.2383H11.233H11.2278H11.2225H11.2172H11.2119H11.2066H11.2013H11.196H11.1907H11.1853H11.18H11.1746H11.1692H11.1639H11.1585H11.1531H11.1476H11.1422H11.1368H11.1313H11.1258H11.1204H11.1149H11.1094H11.1038H11.0983H11.0928H11.0872H11.0816H11.0761H11.0705H11.0648H11.0592H11.0536H11.0479H11.0422H11.0366H11.0309H11.0251H11.0194H11.0137H11.0079H11.0021H10.9963H10.9905H10.9847H10.9788H10.9729H10.9671H10.9612H10.9553H10.9493H10.9434H10.9374H10.9314H10.9254H10.9194H10.9133H10.9073H10.9012H10.8951H10.889H10.8828H10.8767H10.8705H10.8643H10.8581H10.8518H10.8456H10.8393H10.833H10.8267H10.8203H10.814H10.8076H10.8012H10.7947H10.7883H10.7818H10.7753H10.7688H10.7622H10.7557H10.7491H10.7425H10.7358H10.7292H10.7225H10.7158H10.709H10.7023H10.6955H10.6887H10.6819H10.675H10.6681H10.6612H10.6543H10.6473H10.6404H10.6333H10.6263H10.6192H10.6122H10.605H10.5979H10.5907H10.5835H10.5763H10.5691H10.5618H10.5545H10.5471H10.5398H10.5324H10.5249H10.5175H10.51H10.5025H10.495H10.4874H10.4798H10.4722H10.4645H10.4568H10.4491H10.4414H10.4336H10.4258H10.4179H10.4101H10.4022H10.3942H10.3863H10.3783H10.3702H10.3622H10.3541H10.3459H10.3378H10.3296H10.3213H10.3131H10.3048H10.2965H10.2881H10.2797H10.2713H10.2628H10.2543H10.2458H10.2372H10.2286H10.22H10.2113H10.2026H10.1938H10.185H10.1762H10.1674H10.1585H10.1496H10.1406H10.1316H10.1225H10.1135H10.1044H10.0952H10.086H10.0768H10.0675H10.0582H10.0489H10.0395H10.0301H10.0206H10.0111H10.0016H9.99202H9.9824H9.97274H9.96305H9.95331H9.94353H9.93372H9.92386H9.91396H9.90402H9.89404H9.88402H9.87395H9.86384H9.8537H9.84351H9.83327H9.823H9.81268H9.80232H9.79192H9.78147H9.77098H9.76045H9.74987H9.73925H9.72858H9.71787H9.70712H9.69632H9.68548H9.67459H9.66366H9.65268H9.64166H9.63059H9.61947H9.60831H9.59711H9.58585H9.57455H9.56321H9.55181H9.54037H9.52889H9.51735H9.50577H9.49414H9.48246H9.47074H9.45897H9.44714H9.43527H9.42335H9.41139H9.39937H9.3873H9.37519H9.36302H9.35081H9.33854H9.32623H9.31386H9.30145H9.28898H9.27647H9.2639H9.25128H9.23861H9.22589H9.21312H9.20029H9.18741H9.17449H9.1615H9.14847H9.13538H9.12225H9.10905H9.09581H9.08251H9.06916H9.05575H9.04229H9.02878H9.01521H9.00159H8.98791H8.97418H8.96039H8.94655H8.93266H8.9187H8.9047H8.89063H8.87651H8.86234H8.84811H8.83382H8.81947H8.80507H8.79061H8.7761H8.76152H8.74689H8.73221H8.71746H8.70266H8.68779H8.67287H8.6579H8.64286C7.21639 13.1429 6.06077 13.8532 5.24776 14.814ZM19.0714 16C19.0714 15.7239 18.8476 15.5 18.5714 15.5C18.2953 15.5 18.0714 15.7239 18.0714 16V18.0714H16C15.7239 18.0714 15.5 18.2953 15.5 18.5714C15.5 18.8476 15.7239 19.0714 16 19.0714H18.0714V21.1429C18.0714 21.419 18.2953 21.6429 18.5714 21.6429C18.8476 21.6429 19.0714 21.419 19.0714 21.1429V19.0714H21.1429C21.419 19.0714 21.6429 18.8476 21.6429 18.5714C21.6429 18.2953 21.419 18.0714 21.1429 18.0714H19.0714V16Z" fill="white"/>
</svg>
