<svg width="160" height="160" viewBox="0 0 160 160" fill="none" xmlns="http://www.w3.org/2000/svg">
<path fill-rule="evenodd" clip-rule="evenodd" d="M17 6C17 5.44772 16.5523 5 16 5C15.4477 5 15 5.44772 15 6V8.6C15 9.15229 15.4477 9.6 16 9.6C16.5523 9.6 17 9.15229 17 8.6V6ZM24.5 24.3992C24.5 25.6142 23.515 26.5992 22.3 26.5992C21.0849 26.5992 20.1 25.6142 20.1 24.3992C20.1 23.1842 21.0849 22.1992 22.3 22.1992C23.515 22.1992 24.5 23.1842 24.5 24.3992ZM145.8 25.8008C144.53 25.8008 143.5 26.8305 143.5 28.1008C143.5 29.371 144.53 30.4008 145.8 30.4008C147.07 30.4008 148.1 29.371 148.1 28.1008C148.1 26.8305 147.07 25.8008 145.8 25.8008ZM141.5 28.1008C141.5 25.726 143.425 23.8008 145.8 23.8008C148.175 23.8008 150.1 25.726 150.1 28.1008C150.1 30.4756 148.175 32.4008 145.8 32.4008C143.425 32.4008 141.5 30.4756 141.5 28.1008ZM17.1 99C15.8297 99 14.8 100.03 14.8 101.3C14.8 102.57 15.8297 103.6 17.1 103.6C18.3702 103.6 19.4 102.57 19.4 101.3C19.4 100.03 18.3702 99 17.1 99ZM12.8 101.3C12.8 98.9252 14.7252 97 17.1 97C19.4748 97 21.4 98.9252 21.4 101.3C21.4 103.675 19.4748 105.6 17.1 105.6C14.7252 105.6 12.8 103.675 12.8 101.3ZM143.7 46.5992C144.915 46.5992 145.9 45.6142 145.9 44.3992C145.9 43.1842 144.915 42.1992 143.7 42.1992C142.485 42.1992 141.5 43.1842 141.5 44.3992C141.5 45.6142 142.485 46.5992 143.7 46.5992ZM16 12.1016C16.5523 12.1016 17 12.5493 17 13.1016V15.7016C17 16.2538 16.5523 16.7016 16 16.7016C15.4477 16.7016 15 16.2538 15 15.7016V13.1016C15 12.5493 15.4477 12.1016 16 12.1016ZM18.2 9.89844C17.6477 9.89844 17.2 10.3462 17.2 10.8984C17.2 11.4507 17.6477 11.8984 18.2 11.8984H20.7C21.2522 11.8984 21.7 11.4507 21.7 10.8984C21.7 10.3462 21.2522 9.89844 20.7 9.89844H18.2ZM10 10.8984C10 10.3462 10.4477 9.89844 11 9.89844H13.6C14.1523 9.89844 14.6 10.3462 14.6 10.8984C14.6 11.4507 14.1523 11.8984 13.6 11.8984H11C10.4477 11.8984 10 11.4507 10 10.8984ZM143.171 146.657C142.761 146.286 142.129 146.318 141.758 146.728C141.388 147.137 141.42 147.769 141.829 148.14L145.25 151.235L141.793 154.691C141.402 155.082 141.402 155.715 141.793 156.106C142.183 156.496 142.817 156.496 143.207 156.106L147.407 151.906C147.601 151.712 147.707 151.447 147.7 151.173C147.693 150.9 147.574 150.641 147.371 150.457L143.171 146.657ZM61.7929 137.191C62.1834 136.801 62.8166 136.801 63.2071 137.191L65.0071 138.991C65.3976 139.382 65.3976 140.015 65.0071 140.406C64.6166 140.796 63.9834 140.796 63.5929 140.406L61.7929 138.606C61.4024 138.215 61.4024 137.582 61.7929 137.191ZM68.1877 142.172C67.7868 141.793 67.1539 141.81 66.774 142.211C66.3942 142.612 66.4113 143.245 66.8123 143.624L68.7123 145.424C69.1132 145.804 69.7461 145.787 70.126 145.386C70.5058 144.985 70.4887 144.352 70.0877 143.972L68.1877 142.172ZM70.0071 137.293C70.3976 137.683 70.3976 138.317 70.0071 138.707L68.2071 140.507C67.8166 140.898 67.1834 140.898 66.7929 140.507C66.4023 140.117 66.4023 139.483 66.7929 139.093L68.5929 137.293C68.9834 136.902 69.6165 136.902 70.0071 137.293ZM65.0259 143.688C65.4058 143.287 65.3886 142.654 64.9877 142.274C64.5868 141.894 63.9538 141.911 63.574 142.312L61.774 144.212C61.3942 144.613 61.4113 145.246 61.8122 145.626C62.2132 146.006 62.8461 145.989 63.2259 145.588L65.0259 143.688Z" fill="url(#paint0_linear_42447_24620)"/>
<path fill-rule="evenodd" clip-rule="evenodd" d="M85.659 57.2847C85.659 65.0641 79.3526 71.3704 71.5733 71.3704C63.7939 71.3704 57.4876 65.0641 57.4876 57.2847C57.4876 49.5054 63.7939 43.199 71.5733 43.199C79.3526 43.199 85.659 49.5054 85.659 57.2847ZM87.859 57.2847C87.859 66.2791 80.5676 73.5704 71.5733 73.5704C62.5789 73.5704 55.2876 66.2791 55.2876 57.2847C55.2876 48.2904 62.5789 40.999 71.5733 40.999C80.5676 40.999 87.859 48.2904 87.859 57.2847ZM122.142 116.999H109.573V114.799H122.142C123.136 114.799 123.942 113.993 123.942 112.999V100.713C123.942 89.9359 115.205 81.199 104.428 81.199H102.215C101.439 80.4144 100.618 79.6793 99.7603 78.999H104.428C116.42 78.999 126.142 88.7208 126.142 100.713V112.999C126.142 115.208 124.351 116.999 122.142 116.999ZM88.7166 70.6132C88.2352 71.2318 87.721 71.8237 87.1767 72.3863C89.0629 73.1499 91.1247 73.5704 93.2848 73.5704C102.279 73.5704 109.57 66.2791 109.57 57.2847C109.57 48.2904 102.279 40.999 93.2848 40.999C91.1228 40.999 89.0592 41.4203 87.1716 42.1853C87.7161 42.7477 88.2305 43.3394 88.7121 43.9578C90.1459 43.466 91.6842 43.199 93.2848 43.199C101.064 43.199 107.37 49.5054 107.37 57.2847C107.37 65.0641 101.064 71.3705 93.2848 71.3705C91.6858 71.3705 90.1491 71.104 88.7166 70.6132ZM41.2 112.999V100.713C41.2 89.9359 49.9368 81.199 60.7143 81.199H82.4286C93.206 81.199 101.943 89.9359 101.943 100.713V112.999C101.943 113.993 101.137 114.799 100.143 114.799H43C42.0059 114.799 41.2 113.993 41.2 112.999ZM39 100.713V112.999C39 115.208 40.7909 116.999 43 116.999H100.143C102.352 116.999 104.143 115.208 104.143 112.999V100.713C104.143 88.7208 94.421 78.999 82.4286 78.999H60.7143C48.7218 78.999 39 88.7208 39 100.713Z" fill="url(#paint1_linear_42447_24620)"/>
<defs>
<linearGradient id="paint0_linear_42447_24620" x1="80.05" y1="5" x2="80.05" y2="156.398" gradientUnits="userSpaceOnUse">
<stop stop-color="#45A293"/>
<stop offset="1" stop-color="#0099E8"/>
</linearGradient>
<linearGradient id="paint1_linear_42447_24620" x1="82.5711" y1="40.999" x2="82.5711" y2="116.999" gradientUnits="userSpaceOnUse">
<stop stop-color="#45A293"/>
<stop offset="1" stop-color="#0099E8"/>
</linearGradient>
</defs>
</svg>
